<svg xmlns="http://www.w3.org/2000/svg" width="48" height="16" version="1.1"><path fill="#8d8d8d" d="M3 4.43 4.43 3 13 11.57 11.57 13z"/><path fill="#8d8d8d" d="M4.43 13 3 11.57 11.57 3 13 4.43z"/><path fill="#ccc" d="M4.4 12.97 3.41 11.98 11.6 3.79 12.59 4.79z"/><path fill="#ccc" d="M12.59 11.98 11.6 12.97 3.41 4.79 4.4 3.79z"/><path fill="#121212" d="m19 4.43 1.43-1.43 8.57 8.57-1.43 1.43z"/><path fill="#121212" d="m20.43 13-1.43-1.43 8.57-8.57 1.43 1.43z"/><path fill="#26262f" fill-opacity=".94" d="m20.4 12.97-0.99-0.99 8.19-8.19 0.99 0.99z"/><path fill="#26262f" fill-opacity=".94" d="m28.59 11.98-0.99 0.99-8.19-8.19 0.99-0.99z"/><path fill="#2e2e2e" d="m35 4.43 1.43-1.43 8.57 8.57-1.43 1.43z"/><path fill="#2e2e2e" d="m36.43 13-1.43-1.43 8.57-8.57 1.43 1.43z"/><path fill="#787878" d="m36.4 12.97-0.99-0.99 8.19-8.19 0.99 0.99z"/><path fill="#787878" d="m44.59 11.98-0.99 0.99-8.19-8.19 0.99-0.99z"/></svg>