<svg xmlns="http://www.w3.org/2000/svg" xmlns:svg="http://www.w3.org/2000/svg" xmlns:xlink="http://www.w3.org/1999/xlink" id="svg3395" width="320" height="144" version="1.1" xml:space="preserve"><metadata id="metadata3773"/><defs id="defs3400"><linearGradient id="a"><stop id="stop3403" offset="0" stop-color="#606eda"/><stop id="stop3405" offset="1" stop-color="#021db2"/></linearGradient><linearGradient id="b"><stop id="stop3408" offset="0" stop-color="#e59290"/><stop id="stop3410" offset="1" stop-color="#e99890"/></linearGradient><linearGradient id="c"><stop id="stop3413" offset="0" stop-color="#c0544f"/><stop id="stop3415" offset="1" stop-color="#d08481"/></linearGradient><linearGradient id="d"><stop id="stop3418" offset="0" stop-color="#ffa801" stop-opacity="0"/><stop id="stop3420" offset="1" stop-color="#f0fb3d"/></linearGradient><linearGradient id="e"><stop id="stop3423" offset="0" stop-color="#ffbd00" stop-opacity=".65"/><stop id="stop3425" offset="1" stop-color="#fff" stop-opacity=".91"/></linearGradient><linearGradient id="f"><stop id="stop3428" offset="0" stop-color="#00d600" stop-opacity="0"/><stop id="stop3430" offset="1" stop-color="#d8fc7b" stop-opacity=".81"/></linearGradient><linearGradient id="g"><stop id="stop3433" offset="0" stop-color="#00ba00"/><stop id="stop3435" offset="1" stop-color="#fff" stop-opacity=".91"/></linearGradient><linearGradient id="h"><stop id="stop3438" offset="0" stop-color="#00a104"/><stop id="stop3440" offset="1" stop-color="#00c605"/></linearGradient><linearGradient id="i"><stop id="stop3443" offset="0" stop-color="red" stop-opacity="0"/><stop id="stop3445" offset="1" stop-color="#f0cb68" stop-opacity=".71"/></linearGradient><linearGradient id="j"><stop id="stop3448" offset="0" stop-color="#e60000" stop-opacity=".65"/><stop id="stop3450" offset="1" stop-color="#fff" stop-opacity=".91"/></linearGradient><linearGradient id="k"><stop id="stop3453" offset="0" stop-color="#a10000"/><stop id="stop3455" offset="1" stop-color="#c60000"/></linearGradient><linearGradient id="l"><stop id="stop3458" offset="0" stop-color="#d7687d"/><stop id="stop3460" offset="1" stop-color="#b21402"/></linearGradient><radialGradient id="z" cx="0" cy="0" r="1" fx="0" fy="0" gradientTransform="matrix(18,0,0,-18,680,341)" gradientUnits="userSpaceOnUse" spreadMethod="pad"><stop id="stop3463" offset="0"/><stop id="stop3465" offset="1" stop-opacity="0"/></radialGradient><radialGradient id="A" cx="0" cy="0" r="1" fx="0" fy="0" gradientTransform="matrix(9,0,0,9,304,36)" gradientUnits="userSpaceOnUse" spreadMethod="pad" xlink:href="#z"/><linearGradient id="m" x1="0" x2="24" y1="0" y2="0" gradientTransform="matrix(0,-0.58333333,-0.58333333,0,118,110)" gradientUnits="userSpaceOnUse" xlink:href="#l"/><linearGradient id="n" x1="96.5" x2="109.5" y1="103" y2="103" gradientTransform="matrix(0,1,-1,0,206,0)" gradientUnits="userSpaceOnUse" xlink:href="#b"/><linearGradient id="o" x1="113" x2="127" y1="104" y2="104" gradientTransform="matrix(0,1,-1,0,207,-17)" gradientUnits="userSpaceOnUse" xlink:href="#c"/><linearGradient id="p" x1="0" x2="24" y1="0" y2="0" gradientTransform="matrix(0,-0.41666666,-0.41666666,0,218,106)" gradientUnits="userSpaceOnUse" xlink:href="#l"/><linearGradient id="q" x1="113" x2="127" y1="104" y2="104" gradientTransform="matrix(0.71428571,0,0,0.71428571,132.28571,37.714287)" gradientUnits="userSpaceOnUse" xlink:href="#a"/><linearGradient id="r" x1="227.875" x2="235.125" y1="103.156" y2="103.156" gradientTransform="matrix(0,1.3793103,-1.3008129,0,363.08462,-218.35335)" gradientUnits="userSpaceOnUse" xlink:href="#k"/><linearGradient id="s" x1="227.875" x2="235.125" y1="103.156" y2="103.156" gradientTransform="matrix(0,-0.62931035,0.92682926,0,133.46895,244.52849)" gradientUnits="userSpaceOnUse" xlink:href="#j"/><linearGradient id="t" x1="227.875" x2="235.125" y1="103.156" y2="103.156" gradientTransform="matrix(0,0.43965518,0.78048781,0,148.48744,2.1206316)" gradientUnits="userSpaceOnUse" xlink:href="#i"/><linearGradient id="u" x1="227.875" x2="235.125" y1="103.156" y2="103.156" gradientTransform="matrix(-0.01506784,1.3792098,-1.3007182,-0.01421029,377.66542,-216.8212)" gradientUnits="userSpaceOnUse" xlink:href="#h"/><linearGradient id="v" x1="227.875" x2="235.125" y1="103.156" y2="103.156" gradientTransform="matrix(0.00687469,-0.62926454,0.92676181,0.01012483,142.86511,243.44332)" gradientUnits="userSpaceOnUse" xlink:href="#g"/><linearGradient id="w" x1="227.875" x2="235.125" y1="103.156" y2="103.156" gradientTransform="matrix(-0.00480288,0.43962318,0.780431,0.00852617,160.60265,1.1603253)" gradientUnits="userSpaceOnUse" xlink:href="#f"/><linearGradient id="x" x1="227.875" x2="235.125" y1="103.156" y2="103.156" gradientTransform="matrix(0,-0.62931035,0.92682926,0,155.46895,244.52849)" gradientUnits="userSpaceOnUse" xlink:href="#e"/><linearGradient id="y" x1="227.875" x2="235.125" y1="103.156" y2="103.156" gradientTransform="matrix(0,0.43965518,0.78048781,0,170.44325,2.076437)" gradientUnits="userSpaceOnUse" xlink:href="#d"/></defs><path id="path3481" d="M57 12 53.5 8 39 8l0 8 14.5 0"/><path id="path3483" d="m25 36-3.64-4-1.79 0-5.57 8 7.36 0 3.64-4z"/><path id="path3485" d="m7 32 0 8 2.05 0 4.95-8-7 0z"/><path id="path3487" d="m9.67 44.55-1.59-1.32 10.76-15.78 1.59 1.32-10.76 15.78z"/><path id="path3489" d="M16 5L16 7C13.24 7 11 9.24 11 12C11 14.76 13.24 17 16 17C18.76 17 21 14.76 21 12L19.16 12C19.12 13.72 17.73 15.09 16 15.09C14.25 15.09 12.84 13.69 12.84 11.94C12.84 10.19 14.25 8.78 16 8.78L16 11L20.5 8L16 5z"/><path id="path3491" d="m53 37-10 0 0-5 10 0 0 5zm-12 5 14 0 0-12-14 0 0 12z"/><path id="path3493" d="m10 57-2 0 0 9 11 0 0-2-9 0z"/><path id="path3495" d="m13 56 7 0 0 5-7 0zm-2-2 0 9 11 0 0-9z"/><path id="path3497" d="m86 33-8 0 0-2 8 0 0 2z"/><path id="path3499" d="m71.5 31.44 4.2 4.31-4.2 4.31 1.4 1.44 5.6-5.75L72.9 30z"/><path id="path3501" d="m86 37-6 0 0-2 6 0 0 2z"/><path id="path3503" d="m86 41-8 0 0-2 8 0 0 2z"/><path id="path3505" d="m80.44 16.94c-2.48 0-4.5-2.02-4.5-4.5 0-0.88 0.26-1.7 0.69-2.39l6.2 6.2c-0.69 0.44-1.51 0.69-2.39 0.69m4.5-4.5c0 0.88-0.26 1.7-0.69 2.39l-6.2-6.2c0.69-0.44 1.51-0.69 2.39-0.69 2.48 0 4.5 2.02 4.5 4.5M80.5 6c-3.59 0-6.5 2.91-6.5 6.5 0 3.59 2.91 6.5 6.5 6.5 3.59 0 6.5-2.91 6.5-6.5 0-3.59-2.91-6.5-6.5-6.5"/><path id="path3507" d="m117 65-10 0 0-10 10 0 0 10z"/><path id="path3509" d="M149 8.33 147.67 7 144 10.67 140.33 7 139 8.33l3.67 3.67-3.67 3.67 1.33 1.33 3.67-3.67 3.67 3.67L149 15.67 145.33 12 149 8.33z"/><path id="path3511" fill="#424242" d="m44 59 2 3 0 4 4 0 0-4 2-3z" opacity=".5"/><path id="path3513" d="m46.5 65.23c0.32 0.13 0.84 0.24 1.47 0.24 0.59 0 1.14-0.1 1.53-0.26l0-3.93 4-4.57 0-0.19-11 0 0 0.22 4 4.57 0 3.93zM47.97 67C46.81 66.91 45.82 66.71 45 66.01l0-4.12-4-4.57 0-2.32 14 0 0 2.35-4 4.57 0 4.13c-0.92 0.67-2.1 0.94-3.03 0.95"/><path id="path3515" d="M86 60 76 55 76 65"/><path id="path3517" d="m153 57-11 0 0-2 11 0 0 2z" opacity=".2"/><path id="path3519" d="m142 57-6 0 0-2 6 0 0 2z"/><path id="path3521" d="m145 60-6 0 0-2 6 0 0 2z"/><path id="path3523" d="m150 63-6 0 0-2 6 0 0 2z"/><path id="path3525" d="m152 66-6 0 0-2 6 0 0 2z"/><path id="path3527" d="m170 67-2 0 0-9 2 0 0 9z"/><path id="path3529" d="m173 67-2 0 0-11 2 0 0 11z"/><path id="path3531" d="m176 67-2 0 0-13 2 0 0 13z"/><path id="path3533" d="m179 67-2 0 0-4 2 0 0 4z"/><path id="path3535" d="m182 67-2 0 0-9 2 0 0 9z"/><path id="path3537" d="m185 67-2 0 0-11 2 0 0 11z"/><path id="path3539" d="m208 57-10 0 0-2 10 0 0 2z"/><path id="path3541" d="m217 57-5 0 0-2 5 0 0 2z"/><path id="path3543" d="m200 61-2 0 0-2 2 0 0 2z"/><path id="path3545" d="m213 61-10 0 0-2 10 0 0 2z"/><path id="path3547" d="m217 61-2 0 0-2 2 0 0 2z"/><path id="path3549" d="m205 65-7 0 0-2 7 0 0 2z"/><path id="path3551" d="m217 65-8 0 0-2 8 0 0 2z"/><path id="path3553" d="m274 64-7 0 0-8 7 0 0 8zm-9 2 14 0 0-12-14 0 0 12z"/><path id="path3555" d="m298 12c0 3.31 2.69 6 6 6 3.31 0 6-2.69 6-6 0-3.31-2.69-6-6-6-3.31 0-6 2.69-6 6"/><path id="path3557" fill="url(#A)" d="m295 36c0 4.97 4.03 9 9 9l0 0c4.97 0 9-4.03 9-9l0 0c0-4.97-4.03-9-9-9l0 0c-4.97 0-9 4.03-9 9"/><path id="path3559" d="m298 36c0 3.31 2.69 6 6 6 3.31 0 6-2.69 6-6 0-3.31-2.69-6-6-6-3.31 0-6 2.69-6 6"/><path id="path3561" d="M239 30C236.24 30 234 32.24 234 35C234 37.76 236.24 40 239 40C240.03 40 240.96 39.69 241.75 39.16L245.56 43L247 41.56L243.19 37.75C243.71 36.96 244 36.02 244 35C244 32.24 241.76 30 239 30zM239 32C240.66 32 242 33.34 242 35C242 36.66 240.66 38 239 38C237.34 38 236 36.66 236 35C236 33.34 237.34 32 239 32z"/><path id="path3563" fill="none" stroke="#000" stroke-miterlimit="10" stroke-width="1.48" d="m233.73 63.76 5.25-3.23 5.32 2.23 4.95-4.03"/><path id="path3565" d="m231 67 0-13-1 0 0 14 21 0 0-1z"/><path id="path3567" d="m237 11-4 0 0-4 4 0 0 4z"/><path id="path3569" d="m247 9-9 0 0-2 9 0 0 2z"/><path id="path3571" d="m247 11-9 0 0-1 9 0 0 1z"/><path id="path3573" d="m247 15-9 0 0-2 9 0 0 2z"/><path id="path3575" d="m237 17-4 0 0-4 4 0 0 4z"/><path id="path3577" d="m247 17-9 0 0-1 9 0 0 1z"/><path id="path3579" d="m176 38.13c-1.18 0-2.13-0.96-2.13-2.13 0-1.18 0.96-2.13 2.13-2.13 1.18 0 2.13 0.96 2.13 2.13 0 1.18-0.96 2.13-2.13 2.13m8-3.73-2.93-0.53 1.72-2.39-2.26-2.26-2.46 1.79-0.47-3-3.2 0-0.4 3.13-2.53-1.92-2.26 2.26 1.99 2.59-3.2 0.33 0 3.2 3.33 0.33-2.12 2.59 2.26 2.26 2.53-2.12 0.4 3.33 3.2 0 0.4-3.2 2.53 1.99 2.26-2.26L181 38.07l3-0.47 0-3.2z"/><path id="path3581" d="m268.01 35.99c0.61 0.28 1.07 0.9 1.07 1.58 0.11 0.85-0.05 1.72 0.12 2.57 0.27 0.54 1 0.28 1.43 0.55 0.49 0.24 0.48 1.01-0.06 1.18-0.56 0.22-1.18 0.08-1.74-0.05-0.71-0.2-1.41-0.72-1.5-1.5-0.18-0.89 0.01-1.8-0.16-2.68-0.22-0.64-0.94-0.9-1.57-0.93-0.58-0.1-0.83-0.94-0.35-1.3 0.51-0.35 1.26-0.14 1.69-0.66 0.44-0.48 0.29-1.18 0.32-1.78 0-0.81-0.02-1.77 0.65-2.34 0.66-0.54 1.58-0.71 2.41-0.63 0.63 0 0.98 0.87 0.4 1.22-0.44 0.37-1.2 0.06-1.51 0.65-0.14 0.56-0.05 1.15-0.07 1.73-0.01 0.75-0.05 1.64-0.72 2.13-0.12 0.1-0.26 0.19-0.4 0.26"/><path id="path3583" d="m276.98 35.99c-0.67-0.3-1.08-1.02-1.08-1.75-0.07-0.76 0.03-1.52-0.06-2.28-0.24-0.58-0.98-0.4-1.46-0.59-0.59-0.24-0.48-1.18 0.14-1.31 0.73-0.15 1.52-0.01 2.18 0.32 0.56 0.28 0.95 0.86 0.99 1.48 0.13 0.83-0.03 1.68 0.13 2.5 0.2 0.68 0.94 0.83 1.54 0.9 0.56 0.07 0.86 0.8 0.46 1.21-0.44 0.46-1.2 0.2-1.65 0.66-0.51 0.46-0.4 1.21-0.4 1.83-0.03 0.78 0.06 1.69-0.52 2.3-0.74 0.65-1.8 0.86-2.75 0.68-0.52-0.16-0.69-1.01-0.15-1.25 0.44-0.23 1.02-0.08 1.41-0.45 0.26-0.45 0.09-0.98 0.14-1.47 0.01-0.76-0.07-1.63 0.43-2.26C276.51 36.3 276.75 36.14 276.99 36"/><path id="path3585" d="m275 15-2 0 0-6 2 0zm-4 0-2 0 0-6 2 0zm4-10-6 0-4 4 0 6 4 4 6 0 4-4.12 0-5.88z"/><path id="path3587" d="m112.03 15.5c-1.93 0-3.5-1.57-3.5-3.5 0-1.93 1.57-3.5 3.5-3.5 1.93 0 3.5 1.57 3.5 3.5 0 1.93-1.57 3.5-3.5 3.5m-0.03-8.5c-2.44 0-4.63 0.83-9 5 4.31 4.17 6.56 5 9 5 2.44 0 4.63-0.83 9-5-4.31-4.17-6.56-5-9-5"/><path id="path3589" d="m110.5 12c0 0.83 0.67 1.5 1.5 1.5 0.83 0 1.5-0.67 1.5-1.5 0-0.83-0.67-1.5-1.5-1.5-0.83 0-1.5 0.67-1.5 1.5"/><path id="path3591" d="m139.5 33 9 0-1.5 10-6 0"/><path id="path3593" d="m147.5 30-2 0 0-1-3 0 0 1-2 0c-0.55 0-1 0.48-1 1l0 1 1 0 7 0 1 0 0-1c0-0.52-0.45-1-1-1"/><path id="path3595" d="m317 69 0-5-5 5 5 0z"/><path id="path3597" d="m23 84-8-5 0 10"/><path id="path3599" d="m13 89-3 0 0-10 3 0 0 10z"/><path id="path3601" d="m47 88-3 0 0-8 3 0 0 8z"/><path id="path3603" d="m53 88-3 0 0-8 3 0 0 8z"/><path id="path3605" d="m78.5 89c0 1.1 0.9 2 2 2 1.1 0 2-0.9 2-2 0-1.1-0.9-2-2-2-1.1 0-2 0.9-2 2"/><path id="path3607" d="M79 78L79 82L76 82L80.5 86L85 82L82 82L82 78L79 78z"/><path id="path3609" d="m110.5 89c0 1.1 0.9 2 2 2 1.1 0 2-0.9 2-2 0-1.1-0.9-2-2-2-1.1 0-2 0.9-2 2"/><path id="path3611" d="M112.5 78L108 82L111 82L111 86L114 86L114 82L117 82L112.5 78z"/><path id="path3613" d="m142 86.5c0 1.1 0.9 2 2 2 1.1 0 2-0.9 2-2 0-1.1-0.9-2-2-2-1.1 0-2 0.9-2 2"/><path id="path3615" fill="none" stroke="#000" stroke-width="2.5" d="m137.25 87.03c2.55-8.43 11.4-8.73 13.94 0"/><path id="path3617" d="m151.68 89-4.54-2.76 6.68-2.1"/><path id="path3619" d="m12 102-7-4 0 8"/><path id="path3621" d="m24 106 4-7-8 0"/><path id="path3623" d="m8 111 4 7-8 0"/><path id="path3625" d="m54 105 0 7-10 0 0-7zm1 8 0-11-12 0 0 11z"/><rect id="rect3627" width="12" height="3" x="73" y="110" opacity=".82" ry="0"/><rect id="rect3629" width="14" height="12" x="168.5" y="78.5" fill="none" stroke="#000"/><path id="path3631" d="m180 84.5-5-3.25 0 6.5"/><rect id="rect3633" width="1" height="13" x="172" y="78"/><rect id="rect3635" width="14" height="12" x="200.5" y="78.5" fill="none" stroke="#000"/><path id="path3637" d="m207 84.5 5-3.25 0 6.5"/><rect id="rect3639" width="1" height="13" x="204" y="78"/><rect id="rect3641" width="14" height="12" x="264.5" y="78.5" fill="none" stroke="#000"/><path id="path3643" d="m272 84.5-5-3.25 0 6.5"/><rect id="rect3645" width="1" height="13" x="274" y="78"/><rect id="rect3647" width="14" height="12" x="296.5" y="78.5" fill="none" stroke="#000"/><path id="path3649" d="m299 84.5 5-3.25 0 6.5"/><rect id="rect3651" width="1" height="13" x="306" y="78"/><path id="path3653" fill="url(#m)" d="m118 96c-3.87 0-7 3.13-7 7 0 3.87 3.13 7 7 7 3.87 0 7-3.13 7-7 0-3.87-3.13-7-7-7"/><path id="path3655" fill="#f27d82" d="m111.5 103c0 3.59 2.91 6.5 6.5 6.5 3.59 0 6.5-2.91 6.5-6.5 0-3.59-2.91-6.5-6.5-6.5-3.59 0-6.5 2.91-6.5 6.5"/><path id="path3657" fill-opacity=".36" d="m121.5 100.93-0.93-0.93-2.57 2.57-2.57-2.57-0.93 0.93 2.57 2.57L114.5 106.07 115.43 107 118 104.43 120.57 107 121.5 106.07 118.93 103.5 121.5 100.93z"/><path id="path3659" fill="#fff" d="m121.5 100.43-0.93-0.93-2.57 2.57-2.57-2.57-0.93 0.93 2.57 2.57-2.57 2.57 0.93 0.93 2.57-2.57 2.57 2.57 0.93-0.93-2.57-2.57 2.57-2.57z"/><path id="path3661" fill-opacity=".24" d="m138.5 100.93-0.93-0.93-2.57 2.57-2.57-2.57-0.93 0.93 2.57 2.57L131.5 106.07 132.43 107 135 104.43 137.57 107 138.5 106.07 135.93 103.5 138.5 100.93z"/><path id="path3663" fill="#676767" d="m138.5 100.43-0.93-0.93-2.57 2.57-2.57-2.57-0.93 0.93 2.57 2.57-2.57 2.57 0.93 0.93 2.57-2.57 2.57 2.57 0.93-0.93-2.57-2.57 2.57-2.57z"/><path id="path3665" fill="url(#o)" d="m103 110c3.87 0 7-3.13 7-7 0-3.87-3.13-7-7-7-3.87 0-7 3.13-7 7 0 3.87 3.13 7 7 7"/><path id="path3667" fill="url(#n)" d="m103 96.5c-3.59 0-6.5 2.91-6.5 6.5 0 3.59 2.91 6.5 6.5 6.5 3.59 0 6.5-2.91 6.5-6.5 0-3.59-2.91-6.5-6.5-6.5"/><path id="path3669" fill="#993c35" d="m106.5 100.93-0.93-0.93-2.57 2.57-2.57-2.57-0.93 0.93 2.57 2.57L99.5 106.07 100.43 107 103 104.43 105.57 107 106.5 106.07 103.93 103.5 106.5 100.93z"/><path id="path3671" fill="#fff" d="m106.5 100.43-0.93-0.93-2.57 2.57-2.57-2.57-0.93 0.93 2.57 2.57-2.57 2.57 0.93 0.93 2.57-2.57 2.57 2.57 0.93-0.93-2.57-2.57 2.57-2.57z"/><path id="path3673" fill="#bebebe" d="m143 102.5c0 3.59 2.91 6.5 6.5 6.5 3.59 0 6.5-2.91 6.5-6.5 0-3.59-2.91-6.5-6.5-6.5-3.59 0-6.5 2.91-6.5 6.5"/><path id="path3675" fill-opacity=".37" d="m153 100.43-0.93-0.93-2.57 2.57L146.93 99.5 146 100.43 148.57 103 146 105.57 146.93 106.5 149.5 103.93 152.07 106.5 153 105.57 150.43 103 153 100.43z"/><path id="path3677" fill="#fff" d="M153 99.93 152.07 99 149.5 101.57 146.93 99 146 99.93 148.57 102.5 146 105.07 146.93 106 149.5 103.43 152.07 106 153 105.07 150.43 102.5 153 99.93z"/><path id="path3679" fill="#9f9f9f" d="m160 102.5c0 3.59 2.91 6.5 6.5 6.5 3.59 0 6.5-2.91 6.5-6.5 0-3.59-2.91-6.5-6.5-6.5-3.59 0-6.5 2.91-6.5 6.5"/><path id="path3681" fill-opacity=".36" d="m170 100.43-0.93-0.93-2.57 2.57L163.93 99.5 163 100.43 165.57 103 163 105.57 163.93 106.5 166.5 103.93 169.07 106.5 170 105.57 167.43 103 170 100.43z"/><path id="path3683" fill="#fff" d="M170 99.93 169.07 99 166.5 101.57 163.93 99 163 99.93 165.57 102.5 163 105.07 163.93 106 166.5 103.43 169.07 106 170 105.07 167.43 102.5 170 99.93z"/><path id="path3685" fill-opacity=".24" d="m184.5 100.43-0.93-0.93-2.57 2.57-2.57-2.57-0.93 0.93 2.57 2.57-2.57 2.57 0.93 0.93 2.57-2.57 2.57 2.57 0.93-0.93-2.57-2.57 2.57-2.57z"/><path id="path3687" fill="#676767" d="m184.5 99.93-0.93-0.93-2.57 2.57-2.57-2.57-0.93 0.93 2.57 2.57L177.5 105.07 178.43 106 181 103.43 183.57 106 184.5 105.07 181.93 102.5 184.5 99.93z"/><path id="path3689" d="m131.65 116.21-1.44-2.03-1.21 1.21 2.55 3.61 6.45-7.67-1.12-1.33z"/><path id="path3691" fill="none" stroke="#367cf1" stroke-width="1.5" d="m195.75 97.75 3.5 3.25-3.5 3.25"/><path id="path3693" fill="none" stroke="#939393" stroke-width="1.5" d="m195.75 108.75 3.5 3.25-3.5 3.25"/><path id="path3695" fill="#bababa" d="m209 101c0 0.55 0.45 1 1 1 0.55 0 1-0.45 1-1 0-0.55-0.45-1-1-1-0.55 0-1 0.45-1 1"/><path id="path3697" fill="none" stroke="#bababa" stroke-width="1.5" d="m208.25 97.75-3.5 3.25 3.5 3.25"/><path id="path3699" fill="url(#p)" d="m218 96c-2.76 0-5 2.24-5 5 0 2.76 2.24 5 5 5 2.76 0 5-2.24 5-5 0-2.76-2.24-5-5-5"/><path id="path3701" fill="#eb3941" d="m213.36 101c0 2.56 2.08 4.64 4.64 4.64 2.56 0 4.64-2.08 4.64-4.64 0-2.56-2.08-4.64-4.64-4.64-2.56 0-4.64 2.08-4.64 4.64"/><path id="path3703" stroke="#fff" d="m216 99 4 4"/><path id="path3705" stroke="#fff" d="m220 99-4 4"/><path id="path3707" stroke="#c19600" stroke-linejoin="round" stroke-width="2" d="m203 116 4-8 4 8z"/><path id="path3709" fill="#f4bd00" stroke="#f5bd00" stroke-linejoin="round" stroke-width="1.5" d="m203 116 4-8 4 8z"/><path id="path3711" fill="#ad8601" d="m205.75 109.75 2.5 0 0 2.5-0.5 1.75-1.5 0-0.5-1.75 0-2.5m0 5.25 2.5 0 0 1.25-2.5 0"/><path id="path3713" fill="#fff" d="m206 110 2 0 0 2.25-0.5 1.75-1 0-0.5-1.75 0-2.25m0 5 2 0 0 1-2 0"/><path id="path3715" fill="url(#r)" d="m229 106c-2.76 0-5-2.24-5-5 0-2.76 2.24-5 5-5 2.76 0 5 2.24 5 5 0 2.76-2.24 5-5 5z"/><path id="path3717" fill="#d00" d="m233.5 101c0 2.49-2.01 4.5-4.5 4.5-2.49 0-4.5-2.01-4.5-4.5 0-2.49 2.01-4.5 4.5-4.5 2.49 0 4.5 2.01 4.5 4.5z"/><path id="path3719" fill="url(#s)" d="m229.03 96.53c1.97 0 3.56 1.02 3.56 2.28 0 1.26-1.59 2.28-3.56 2.28-1.97 0-3.56-1.02-3.56-2.28 0-1.26 1.59-2.28 3.56-2.28z"/><path id="path3721" fill="url(#t)" d="m229.03 105.47c1.66 0 3-0.71 3-1.59 0-0.88-1.34-1.59-3-1.59-1.66 0-3 0.71-3 1.59 0 0.88 1.34 1.59 3 1.59z"/><path id="path3723" fill="url(#u)" d="m239.95 106c-2.76-0.03-4.98-2.29-4.95-5.05 0.03-2.76 2.29-4.98 5.05-4.95 2.76 0.03 4.98 2.29 4.95 5.05-0.03 2.76-2.29 4.98-5.05 4.95z"/><path id="path3725" fill="#00be00" d="m244.5 101.05c-0.03 2.49-2.06 4.48-4.55 4.45-2.49-0.03-4.48-2.06-4.45-4.55 0.03-2.49 2.06-4.48 4.55-4.45 2.49 0.03 4.48 2.06 4.45 4.55z"/><path id="path3727" fill="url(#v)" d="m240.08 96.53c1.97 0.02 3.55 1.06 3.54 2.32-0.01 1.26-1.62 2.26-3.59 2.24-1.97-0.02-3.55-1.06-3.54-2.32 0.01-1.26 1.62-2.26 3.59-2.24z"/><path id="path3729" fill="url(#w)" d="m239.98 105.41c1.66 0.02 3.01-0.68 3.02-1.56 0.01-0.88-1.33-1.61-2.98-1.63-1.66-0.02-3.01 0.68-3.02 1.56-0.01 0.88 1.33 1.61 2.98 1.63z"/><path id="path3731" fill="#e5a600" d="m251 106c-2.76 0-5-2.24-5-5 0-2.76 2.24-5 5-5 2.76 0 5 2.24 5 5 0 2.76-2.24 5-5 5z"/><path id="path3733" fill="#ffbd00" d="m255.5 101c0 2.49-2.01 4.5-4.5 4.5-2.49 0-4.5-2.01-4.5-4.5 0-2.49 2.01-4.5 4.5-4.5 2.49 0 4.5 2.01 4.5 4.5z"/><path id="path3735" fill="url(#x)" d="m251.03 96.53c1.97 0 3.56 1.02 3.56 2.28 0 1.26-1.59 2.28-3.56 2.28-1.97 0-3.56-1.02-3.56-2.28 0-1.26 1.59-2.28 3.56-2.28z"/><path id="path3737" fill="url(#y)" d="m250.99 105.42c1.66 0 3-0.71 3-1.59 0-0.88-1.34-1.59-3-1.59-1.66 0-3 0.71-3 1.59 0 0.88 1.34 1.59 3 1.59z"/><rect height="12" rx=".25" ry=".25" style="fill-opacity:.38;stroke-linejoin:round;stroke-miterlimit:0;stroke-width:2;stroke:#000" id="rect3739" width="8" x="268" y="102"/><path id="path3741" fill="url(#q)" d="m218 107c-2.76 0-5 2.24-5 5 0 2.76 2.24 5 5 5 2.76 0 5-2.24 5-5 0-2.76-2.24-5-5-5"/><path id="path3743" fill="#2a53cd" d="m213.36 112c0 2.56 2.08 4.64 4.64 4.64 2.56 0 4.64-2.08 4.64-4.64 0-2.56-2.08-4.64-4.64-4.64-2.56 0-4.64 2.08-4.64 4.64"/><path id="path3745" fill="#fff" d="m216.93 109.14c-0.03-0.53 0.55-0.97 1.06-0.83 0.5 0.12 0.79 0.73 0.56 1.18-0.2 0.44-0.79 0.61-1.2 0.36C217.09 109.71 216.93 109.43 216.93 109.14zm1.7 5.46c0.22 0 0.45 0 0.67 0 0 0.18 0 0.35 0 0.53-0.96 0-1.93 0-2.89 0 0-0.18 0-0.35 0-0.53 0.22 0 0.44 0 0.66 0 0-1.2 0-2.41 0-3.61-0.22 0-0.44 0-0.66 0 0-0.18 0-0.35 0-0.53 0.74 0 1.48 0 2.22 0 0 1.38 0 2.76 0 4.14z"/><rect height="8" rx=".25" ry=".25" style="fill-opacity:.38;stroke-linejoin:round;stroke-miterlimit:0;stroke-width:2;stroke:#000" id="rect3747" width="12" x="298" y="104"/><path id="path3749" stroke-width="2" d="m12.25 125c-0.68 0-1.25 0.57-1.25 1.25l0 9.69 2-3.31 0-5.63 3.38 0 1.19-2-5.31 0zm8.75 3.06-2 3.31 0 5.63-3.38 0-1.19 2 5.31 0c0.68 0 1.25-0.57 1.25-1.25l0-9.69z"/><path id="path3751" fill="none" stroke="#000" stroke-width="2" d="m10.75 140.75 10.5-17.5"/><path id="path3753" d="m46 128 7 0 0 8-7 0 0-8zm9-2-14 0 0 12 14 0 0-12z"/><rect id="rect3755" width="3" height="6" x="73" y="129"/><rect id="rect3757" width="3" height="6" x="77" y="129"/><rect id="rect3759" width="3" height="6" x="81" y="129"/><rect id="rect3761" width="15" height="10" x="71" y="127" fill="none" stroke="#000" stroke-linejoin="round" stroke-width="2" rx="1" ry="1"/><path id="path3763" fill="none" stroke="#000" stroke-width="2" d="m86 129c3 0 3 0 3 3 0 3 0 3-3 3"/><path id="path3765" d="m227.25 107c-0.7 0-1.25 0.5-1.25 1.25l0 7.5c0 0.7 0.5 1.25 1.25 1.25l3.5 0c0.7 0 1.25-0.5 1.25-1.25l0-7.5c0-0.7-0.5-1.25-1.25-1.25l-3.5 0zm-0.25 1 4 0 0 7-4 0 0-7zm2 7.25c0.4 0 0.75 0.3 0.75 0.75 0 0.4-0.3 0.75-0.75 0.75-0.4 0-0.75-0.3-0.75-0.75 0-0.4 0.3-0.75 0.75-0.75z"/><path id="path3767" d="m 180,6 0,11 -7,0 0,-11 z m 1,12.5 0,-14 c -3.61,-0.97 -5.62,-1.02 -9,0 l 0,14 c 3.41,0.68 5.43,0.9 9,0 z"/><rect id="rect3769" width="1" height="7" x="150.278" y="-94.729" fill-opacity=".49" transform="matrix(0.82509248,0.5649977,-0.5649977,0.82509248,0,0)"/><rect id="rect3771" width="1" height="3" x="148.785" y="-92.54" fill-opacity=".49" transform="matrix(0.82909395,0.55910931,-0.55910931,0.82909395,0,0)"/><path style="fill:#000;fill-opacity:1;stroke:#000;stroke-width:1;stroke-linecap:butt;stroke-linejoin:miter;stroke-miterlimit:4;stroke-opacity:1;stroke-dasharray:none" id="path3550" d="m 110.49999,127.4989 -1,0 2,-2 2,2 -1,0 c 0,0 -0.0345,4.6379 -0.0345,4.0345 l 4.03448,-0.034 0,-1 2,2 -2,2 0,-1 -4.03449,-0.034 0.0345,4.0346 1,0 -2,2 -2,-2 1,0 0.0345,-4.0346 -4.03448,0.034 0,1 -2,-2 2,-2 0,1 4.03448,0.034 z"/><path style="fill:#000;fill-opacity:1;fill-rule:evenodd;stroke:#000;stroke-width:2.77777767;stroke-linecap:butt;stroke-linejoin:miter;stroke-miterlimit:4;stroke-opacity:1;stroke-dasharray:none" id="path3635" d="m 53,14 a 3,3 0 1 1 -6,0 3,3 0 1 1 6,0 z" transform="matrix(0.36,0,0,0.36,125.49998,127.46)"/><path style="fill:#000;fill-opacity:1;stroke:#000;stroke-width:1;stroke-linecap:butt;stroke-linejoin:miter;stroke-miterlimit:4;stroke-opacity:1;stroke-dasharray:none" id="path4411-7" d="m 143.48385,129.5 2.54033,-2 -1.5242,0 0,-2 -2,0 -0.0161,2 -1.54033,0 z"/><path style="fill:#000;fill-opacity:1;stroke:#000;stroke-width:1;stroke-linecap:butt;stroke-linejoin:miter;stroke-miterlimit:4;stroke-opacity:1;stroke-dasharray:none" id="path4411-7-7" d="m 146.49998,132.5 2,2.5 0,-1.4998 2,-1e-4 0,-2.0002 -2,1e-4 0,-1.5 z"/><path style="fill:#000;fill-opacity:1;stroke:#000;stroke-width:1;stroke-linecap:butt;stroke-linejoin:miter;stroke-miterlimit:4;stroke-opacity:1;stroke-dasharray:none" id="path4411-7-7-3" d="m 143.49998,135.5 -2.5,2 1.5,0 0,2 2,0 0,-2 1.5,0 z"/><path style="fill:#000;fill-opacity:1;stroke:#000;stroke-width:1;stroke-linecap:butt;stroke-linejoin:miter;stroke-miterlimit:4;stroke-opacity:1;stroke-dasharray:none" id="path4411-7-7-3-5" d="m 140.49998,132.5 -2,-2.5 0,1.4999 -2,0 0,2.0002 2,-3e-4 0,1.5002 z"/><path style="fill:#000;fill-opacity:1;stroke:none" id="Rotate" d="m 169.19838,130.1487 c 0.0551,-0.1128 0.15339,-0.22 0.2313,-0.3064 0.54584,-0.6074 1.38893,-1.1974 3.00529,-1.5702 l 0,-2.1715 c -1.29309,0.2523 -2.31462,0.6686 -3.304,1.5597 -0.33248,0.3832 -0.50543,0.6247 -0.514,1.1665 -0.007,0.443 0.17732,0.8863 0.58141,1.3219 z m 6.63093,3.1292 c -1.61635,-0.024 -3.10906,-0.2558 -4.62277,-0.764 -2.69382,-0.9037 -3.02857,-2.1697 -3.17032,-2.5931 -0.0958,1.6897 0.028,2.9573 0.0346,3.0648 0.092,1.5004 1.29179,2.6742 2.15751,3.1151 1.7796,0.9067 3.66137,1.3756 5.60099,1.4151 l 0,2.4842 3.25098,-4.6483 -3.25098,-4.6486 0,2.5748 z m -0.32327,-5.2959 c 1.61636,0.01 3.45286,0.3384 5.2454,1.1131 0.73528,0.3177 1.32751,0.7904 1.80821,1.3048 0.33152,-0.1523 0.80672,-0.7308 0.74126,-1.2923 -0.16163,-1.3879 -1.62637,-2.1912 -1.88014,-2.3045 -1.7704,-0.7908 -3.9751,-1.0356 -5.91473,-1.0589 l 0,-1.7442 -2.01317,2.8787 2.01317,2.8783 0,-1.775 z m 8.42363,1.8658 c -0.0824,0.6478 -0.82676,2.0349 -3.89784,2.9138 l 0,4.5247 c 1.13145,-0.3677 2.46495,-1.2956 3.17873,-2.1988 0.2911,-0.3677 0.46906,-0.875 0.57736,-1.242 0.33216,-1.1229 0.18604,-3.3136 0.14175,-3.9977 z"/><path id="path4" d="M 233,88.881559 V 92 h 3.11844 L 244.994,83.124438 241.87556,80.005997 233,88.881559 z m 14.75262,-8.505747 c 0.32984,-0.329835 0.32984,-0.849575 0,-1.17941 l -1.94902,-1.949026 c -0.32984,-0.329835 -0.84958,-0.329835 -1.17941,0 l -1.62919,1.639181 3.11844,3.118441 1.63918,-1.629186 z"/></svg>